<svg xmlns="http://www.w3.org/2000/svg" width="760" height="420" viewBox="0 0 760 420">
<defs>
  <linearGradient id="bg" x1="0" x2="1"><stop offset="0" stop-color="#f8fbff"/><stop offset="1" stop-color="#e9f1fb"/></linearGradient>
  <linearGradient id="metal" x1="0" x2="1"><stop offset="0" stop-color="#ffffff"/><stop offset="1" stop-color="#d7e3ee"/></linearGradient>
  <filter id="s" x="-20%" y="-20%" width="140%" height="140%"><feDropShadow dx="0" dy="12" stdDeviation="14" flood-opacity=".18"/></filter>
</defs>
<rect width="760" height="420" rx="0" fill="url(#bg)"/>
<g filter="url(#s)">
  <rect x="380" y="50" width="210" height="110" rx="12" fill="#f7f7f7" stroke="#c8d2dd"/>
  <rect x="408" y="75" width="36" height="58" rx="5" fill="#1e293b"/>
  <rect x="460" y="75" width="36" height="58" rx="5" fill="#1e293b"/>
  <rect x="512" y="75" width="36" height="58" rx="5" fill="#1e293b"/>
  <rect x="420" y="128" width="150" height="18" rx="9" fill="#111827"/>
  <rect x="410" y="153" width="190" height="20" rx="10" fill="#d7dee7"/>
  <rect x="470" y="22" width="18" height="38" rx="6" fill="#1f2937"/>
  <circle cx="632" cy="110" r="58" fill="url(#metal)" stroke="#c8d2dd" stroke-width="3"/>
  <circle cx="632" cy="110" r="24" fill="#caa46b" stroke="#fff" stroke-width="10"/>
</g>
<g filter="url(#s)">
  <ellipse cx="230" cy="248" rx="86" ry="40" fill="#d5dde5"/>
  <rect x="145" y="178" width="172" height="78" rx="14" fill="url(#metal)" stroke="#cad5df"/>
  <ellipse cx="231" cy="179" rx="86" ry="40" fill="#ffffff" stroke="#cbd5df" stroke-width="3"/>
  <ellipse cx="231" cy="179" rx="44" ry="18" fill="#caa46b" stroke="#fff" stroke-width="10"/>
  <g transform="translate(130,95) rotate(-8)">
    <rect x="0" y="0" width="150" height="95" rx="8" fill="#fff" stroke="#d6dce5"/>
    <g fill="#111"><rect x="14" y="16" width="4" height="34"/><rect x="22" y="16" width="2" height="34"/><rect x="29" y="16" width="5" height="34"/><rect x="39" y="16" width="2" height="34"/><rect x="45" y="16" width="6" height="34"/></g>
    <rect x="70" y="18" width="60" height="6" fill="#111"/><rect x="70" y="32" width="46" height="5" fill="#555"/>
  </g>
</g>
<g filter="url(#s)">
  <rect x="455" y="235" width="128" height="88" rx="10" fill="#111827"/>
  <ellipse cx="519" cy="236" rx="64" ry="26" fill="#2d3748"/>
  <ellipse cx="519" cy="236" rx="35" ry="12" fill="#caa46b" stroke="#fff" stroke-width="8"/>
  <g fill="#d4af37" stroke="#fff" stroke-width="2">
    <circle cx="490" cy="276" r="28"/><circle cx="548" cy="276" r="28"/>
  </g>
  <g font-family="Arial" fill="#111827" font-weight="700" font-size="10" text-anchor="middle">
    <text x="490" y="280">LABEL</text><text x="548" y="280">LABEL</text>
  </g>
</g>
<g filter="url(#s)">
  <rect x="55" y="276" width="92" height="84" rx="10" fill="url(#metal)" stroke="#cad5df"/>
  <ellipse cx="101" cy="276" rx="46" ry="20" fill="#fff" stroke="#cad5df"/>
  <ellipse cx="101" cy="276" rx="23" ry="9" fill="#caa46b" stroke="#fff" stroke-width="7"/>
  <rect x="165" y="302" width="98" height="70" rx="10" fill="url(#metal)" stroke="#cad5df"/>
  <ellipse cx="214" cy="302" rx="49" ry="21" fill="#fff" stroke="#cad5df"/>
  <ellipse cx="214" cy="302" rx="24" ry="9" fill="#caa46b" stroke="#fff" stroke-width="7"/>
  <rect x="285" y="292" width="106" height="76" rx="10" fill="url(#metal)" stroke="#cad5df"/>
  <ellipse cx="338" cy="292" rx="53" ry="22" fill="#fff" stroke="#cad5df"/>
  <ellipse cx="338" cy="292" rx="26" ry="10" fill="#caa46b" stroke="#fff" stroke-width="8"/>
</g>
</svg>